#!OML:ASF F:\VICON\USERDATA\INSTALL\rory3\rory3.ASF
:FULLY-SPECIFIED
:DEGREES
1230
root 4.62106 17.677 -9.78646 694.086 -80.2681 -695.165
lowerback 11.3894 -0.277139 -5.85292
upperback 1.23091 -1.16767 -0.295228
thorax -4.99113 -0.48246 3.17271
lowerneck -23.9872 -4.48645 -10.014
upperneck 28.9148 -5.31554 7.34751
head 14.4591 -2.48135 3.64701
rclavicle 3.78933e-015 -3.57812e-015
rhumerus -42.1742 -17.1602 -74.9264
rradius 27.5254
rwrist 6.29712
rhand -16.7695 7.89067
rfingers 7.12502
rthumb 9.45778 -21.8771
lclavicle 3.78933e-015 -3.57812e-015
lhumerus -28.7872 -3.79561 86.1369
lradius 44.6841
lwrist -1.00152
lhand -13.9119 17.7436
lfingers 7.12502
lthumb 12.214 47.367
rfemur -26.3069 3.51793 11.4653
rtibia 28.0783
rfoot -1.97729 -5.76265
rtoes 2.24583
lfemur 11.2523 -4.79054 -31.1074
ltibia 7.10497
lfoot -9.65048 -12.8144
ltoes 1.55532
1231
root 4.49001 17.668 -9.785 695.65 -80.0437 -696.689
lowerback 11.1735 -0.360949 -5.72821
upperback 1.28956 -1.2432 -0.247105
thorax -4.80303 -0.528458 3.15922
lowerneck -23.9701 -4.46629 -9.95913
upperneck 28.7877 -5.26123 7.2496
head 14.3879 -2.46201 3.60396
rclavicle 1.98412e-014 7.65321e-015
rhumerus -42.1285 -17.0593 -75.0323
rradius 27.5155
rwrist 6.39355
rhand -17.2446 7.77958
rfingers 7.12502
rthumb 8.99936 -22.0085
lclavicle 1.98412e-014 7.65321e-015
lhumerus -28.6619 -3.64097 86.1023
lradius 44.6819
lwrist -1.22498
lhand -21.8092 22.9591
lfingers 7.12502
lthumb 4.593 52.8893
rfemur -26.2033 3.94698 11.4069
rtibia 26.5275
rfoot -3.05874 -4.77162
rtoes 1.52971
lfemur 11.9256 -5.29931 -31.031
ltibia 6.66762
lfoot -9.70187 -12.4514
ltoes 0.736506
1232
root 4.37053 17.6594 -9.78266 697.588 -79.7547 -698.633
lowerback 11.146 -0.428093 -5.51593
upperback 1.35774 -1.29931 -0.188799
thorax -4.71366 -0.563774 3.10765
lowerneck -24.0298 -4.47663 -9.89311
upperneck 28.6628 -5.25809 7.18456
head 14.341 -2.4566 3.5627
rclavicle -2.40654e-014 -2.08724e-015
rhumerus -42.0718 -17.2672 -74.9052
rradius 27.5237
rwrist 6.18345
rhand -16.7683 8.09086
rfingers 7.12502
rthumb 9.45888 -21.6769
lclavicle -2.40654e-014 -2.08724e-015
lhumerus -28.4828 -3.59479 86.1517
lradius 44.7123
lwrist -1.33071
lhand -20.9016 23.6046
lfingers 7.12502
lthumb 5.4694 53.5141
rfemur -26.1191 4.05738 11.4738
rtibia 25.1987
rfoot -4.21911 -3.25238
rtoes -0.894528
lfemur 12.5795 -5.89359 -30.8557
ltibia 6.21476
lfoot -9.5276 -12.2159
ltoes 0.286095
1233
root 4.24831 17.6502 -9.77426 698.714 -79.5306 -699.858
lowerback 11.2065 -0.446281 -5.34671
upperback 1.45517 -1.30338 -0.153205
thorax -4.6473 -0.57315 3.05039
lowerneck -24.1636 -4.5467 -9.90298
upperneck 28.5792 -5.32684 7.17799
head 14.3409 -2.48151 3.54551
rclavicle -3.11843e-015 5.46658e-015
rhumerus -42.0105 -17.3616 -74.7631
rradius 27.5938
rwrist 5.89224
rhand -16.0245 8.26563
rfingers 7.12502
rthumb 10.1765 -21.4682
lclavicle -3.11843e-015 5.46658e-015
lhumerus -28.3287 -3.56167 86.1882
lradius 44.6833
lwrist -1.35023
lhand -20.7385 24.2274
lfingers 7.12502
lthumb 5.62685 54.1327
rfemur -25.9538 4.08784 11.5115
rtibia 24.0818
rfoot -5.55816 -1.3672
rtoes -2.99725
lfemur 13.2368 -6.35096 -30.8169
ltibia 6.0406
lfoot -9.37219 -11.9423
ltoes 0.0329114
1234
root 4.12179 17.6385 -9.77417 698.931 -79.266 -700.059
lowerback 11.2059 -0.415157 -5.42354
upperback 1.45325 -1.27278 -0.177106
thorax -4.6507 -0.556783 3.06415
lowerneck -24.1274 -4.59729 -9.96596
upperneck 28.5671 -5.40979 7.26921
head 14.343 -2.51168 3.57759
rclavicle -1.04113e-014 -1.36167e-014
rhumerus -42.1 -17.4249 -74.7054
rradius 27.6455
rwrist 5.87626
rhand -15.7991 8.33019
rfingers 7.12502
rthumb 10.3939 -21.3929
lclavicle -1.04113e-014 -1.36167e-014
lhumerus -28.291 -3.67152 86.2096
lradius 44.5469
lwrist -1.29227
lhand -21.115 24.6566
lfingers 7.12502
lthumb 5.26329 54.5712
rfemur -25.8597 4.03073 11.4226
rtibia 23.1865
rfoot -6.77363 0.651432
rtoes -4.93438
lfemur 13.5976 -6.79294 -30.9708
ltibia 6.28026
lfoot -9.40477 -11.5258
ltoes -0.924262
1235
root 3.99964 17.6261 -9.77611 699.239 -79.0292 -700.263
lowerback 11.1461 -0.363976 -5.44437
upperback 1.41644 -1.20792 -0.25117
thorax -4.66333 -0.523599 2.98784
lowerneck -24.1404 -4.65617 -10.044
upperneck 28.6569 -5.53369 7.44675
head 14.4087 -2.55054 3.64291
rclavicle -1.14301e-014 -1.49089e-014
rhumerus -42.1786 -17.4658 -74.8176
rradius 27.671
rwrist 6.04573
rhand -16.0278 8.13476
rfingers 7.12502
rthumb 10.1733 -21.5993
lclavicle -1.14301e-014 -1.49089e-014
lhumerus -28.2567 -3.80357 86.1469
lradius 44.3613
lwrist -1.43358
lhand -21.1595 24.6445
lfingers 7.12502
lthumb 5.22038 54.5601
rfemur -25.8489 3.9006 11.433
rtibia 22.5227
rfoot -7.58386 2.61738
rtoes -7.90426
lfemur 13.6769 -7.23738 -31.0448
ltibia 6.78191
lfoot -9.51018 -11.2035
ltoes -0.998073
1236
root 3.88017 17.6179 -9.77813 699.73 -78.7583 -700.579
lowerback 10.9989 -0.384063 -5.50207
upperback 1.41579 -1.23309 -0.284338
thorax -4.57939 -0.53746 2.98617
lowerneck -24.4591 -4.65987 -9.94662
upperneck 28.9136 -5.53491 7.3653
head 14.5838 -2.54873 3.59864
rclavicle -1.22128e-014 -1.56046e-014
rhumerus -42.0483 -17.1077 -75.23
rradius 27.6781
rwrist 6.27307
rhand -16.9354 7.80887
rfingers 7.12502
rthumb 9.29769 -21.9661
lclavicle -1.22128e-014 -1.56046e-014
lhumerus -28.1514 -3.84118 86.0385
lradius 44.2137
lwrist -1.43234
lhand -21.0865 24.8126
lfingers 7.12502
lthumb 5.29083 54.7265
rfemur -25.9181 3.75687 11.4795
rtibia 22.1472
rfoot -8.02466 4.19216
rtoes -11.6036
lfemur 13.6539 -7.738 -31.0838
ltibia 7.30816
lfoot -9.50593 -11.0223
ltoes -0.23964
1237
root 3.7623 17.6098 -9.77767 700.312 -78.564 -701.112
lowerback 11.0834 -0.37892 -5.47719
upperback 1.3969 -1.22812 -0.266196
thorax -4.64682 -0.532786 2.99241
lowerneck -24.7464 -4.6476 -9.8702
upperneck 29.1337 -5.4725 7.19753
head 14.7274 -2.53413 3.53333
rclavicle 3.42531e-014 4.37326e-015
rhumerus -41.9851 -16.8197 -75.4806
rradius 27.7125
rwrist 6.43224
rhand -17.7025 7.57977
rfingers 7.12502
rthumb 8.55745 -22.2268
lclavicle 3.42531e-014 4.37326e-015
lhumerus -28.0812 -3.91468 86.0116
lradius 43.9732
lwrist -1.30307
lhand -21.1564 24.744
lfingers 7.12502
lthumb 5.22336 54.6596
rfemur -25.9109 3.67646 11.6372
rtibia 22.0914
rfoot -7.99251 5.24292
rtoes -14.2494
lfemur 13.8672 -8.15688 -31.0838
ltibia 7.63609
lfoot -9.32779 -10.8751
ltoes 0.660011
1238
root 3.64071 17.6004 -9.77559 700.831 -78.5095 -701.68
lowerback 11.2403 -0.296264 -5.36685
upperback 1.36697 -1.11463 -0.243737
thorax -4.77756 -0.474114 2.94061
lowerneck -24.6791 -4.69692 -9.95047
upperneck 29.1001 -5.50672 7.17537
head 14.7042 -2.56124 3.53001
rclavicle 1.2834e-014 4.67144e-015
rhumerus -41.9927 -16.8645 -75.4537
rradius 27.7039
rwrist 6.50851
rhand -17.6867 7.63076
rfingers 7.12502
rthumb 8.57265 -22.1752
lclavicle 1.2834e-014 4.67144e-015
lhumerus -28.1254 -3.94742 85.9704
lradius 43.7128
lwrist -1.79129
lhand -20.5765 24.5061
lfingers 7.12502
lthumb 5.78323 54.4071
rfemur -25.8404 3.63283 11.8735
rtibia 22.302
rfoot -7.38575 6.24343
rtoes -14.3257
lfemur 14.2806 -8.42591 -31.0581
ltibia 7.81715
lfoot -9.24697 -10.7053
ltoes 0.292647
1239
root 3.51479 17.5925 -9.77201 700.719 -78.4374 -701.585
lowerback 11.2726 -0.200804 -5.385
upperback 1.36844 -0.995009 -0.285953
thorax -4.8052 -0.414633 2.88933
lowerneck -24.614 -4.73028 -9.9457
upperneck 29.0453 -5.55497 7.16276
head 14.6707 -2.5828 3.51278
rclavicle 8.54774e-015 -5.06901e-015
rhumerus -41.9586 -17.0695 -75.4023
rradius 27.6505
rwrist 6.70683
rhand -17.5801 7.71114
rfingers 7.12502
rthumb 8.67555 -22.0906
lclavicle 8.54774e-015 -5.06901e-015
lhumerus -28.1906 -3.80592 85.881
lradius 43.4813
lwrist -2.45705
lhand -19.9427 25.0613
lfingers 7.12502
lthumb 6.39514 54.9447
rfemur -25.8254 3.49377 11.9953
rtibia 22.7325
rfoot -6.39704 7.31332
rtoes -12.6791
lfemur 14.7762 -8.6597 -31.2209
ltibia 7.91641
lfoot -9.30305 -10.3402
ltoes -1.66033
1240
root 3.38913 17.586 -9.77113 701.301 -78.3621 -702.193
lowerback 11.3455 -0.203842 -5.31998
upperback 1.36035 -0.995888 -0.285954
thorax -4.85533 -0.414698 2.85412
lowerneck -24.7277 -4.63479 -9.77948
upperneck 29.1053 -5.41494 6.99675
head 14.6935 -2.52583 3.44442
rclavicle 3.42841e-014 2.08724e-015
rhumerus -41.8473 -16.9895 -75.4882
rradius 27.5776
rwrist 6.959
rhand -17.607 7.82893
rfingers 7.12502
rthumb 8.64965 -21.9739
lclavicle 3.42841e-014 2.08724e-015
lhumerus -28.2954 -3.50408 85.8008
lradius 43.1642
lwrist -2.15085
lhand -20.7313 25.4599
lfingers 7.12502
lthumb 5.63381 55.365
rfemur -25.8291 3.77577 12.2053
rtibia 23.3692
rfoot -5.46878 7.90742
rtoes -10.9752
lfemur 15.3362 -8.94541 -31.2337
ltibia 7.85022
lfoot -9.37681 -9.78028
ltoes -5.50191
1241
root 3.26198 17.5814 -9.77397 701.87 -78.3088 -702.804
lowerback 11.4666 -0.187486 -5.30261
upperback 1.33207 -0.97766 -0.240508
thorax -4.95356 -0.402138 2.89162
lowerneck -24.6878 -4.58615 -9.89757
upperneck 29.0664 -5.32126 7.07653
head 14.6642 -2.48802 3.51641
rclavicle 1.89715e-014 -1.98785e-016
rhumerus -41.7699 -16.6359 -75.599
rradius 27.5729
rwrist 6.97686
rhand -17.5435 7.91063
rfingers 7.12502
rthumb 8.71085 -21.8896
lclavicle 1.89715e-014 -1.98785e-016
lhumerus -28.4478 -3.11331 85.7486
lradius 42.7657
lwrist -1.74839
lhand -21.5467 25.192
lfingers 7.12502
lthumb 4.84652 55.1166
rfemur -25.7734 4.42228 12.3669
rtibia 24.0985
rfoot -4.6087 8.15519
rtoes -8.33412
lfemur 15.8874 -9.21209 -31.2109
ltibia 7.74844
lfoot -9.30185 -9.32017
ltoes -9.30301
1242
root 3.12715 17.5768 -9.76958 701.272 -78.1431 -702.284
lowerback 11.514 -0.104885 -5.45993
upperback 1.35055 -0.892276 -0.257828
thorax -4.966 -0.35761 2.94971
lowerneck -24.4901 -4.64313 -10.1791
upperneck 28.9212 -5.37535 7.29867
head 14.5819 -2.51282 3.64345
rclavicle 1.36664e-015 6.16232e-015
rhumerus -41.6738 -16.376 -75.6697
rradius 27.5403
rwrist 6.79021
rhand -17.6461 7.93289
rfingers 7.12502
rthumb 8.61184 -21.8715
lclavicle 1.36664e-015 6.16232e-015
lhumerus -28.5757 -2.49956 85.7033
lradius 42.3402
lwrist -2.11414
lhand -21.5302 24.9274
lfingers 7.12502
lthumb 4.86239 54.8517
rfemur -25.5373 4.7727 12.2833
rtibia 24.7586
rfoot -3.95647 8.44722
rtoes -5.97243
lfemur 16.3215 -9.488 -31.5122
ltibia 8.06327
lfoot -8.88769 -9.13374
ltoes -9.60361
1243
root 2.98897 17.5809 -9.76572 700.803 -77.8356 -701.862
lowerback 11.4737 -0.0732182 -5.67009
upperback 1.39663 -0.87513 -0.2837
thorax -4.89399 -0.348919 3.0374
lowerneck -24.2957 -4.57497 -10.1458
upperneck 28.72 -5.27485 7.24899
head 14.4367 -2.4723 3.63182
rclavicle 1.27719e-014 5.1684e-015
rhumerus -41.5209 -16.315 -75.7059
rradius 27.4889
rwrist 6.75544
rhand -17.675 7.78166
rfingers 7.12502
rthumb 8.58397 -22.0238
lclavicle 1.27719e-014 5.1684e-015
lhumerus -28.7142 -1.95123 85.6316
lradius 41.9342
lwrist -2.55358
lhand -21.6699 24.6037
lfingers 7.12502
lthumb 4.72747 54.5309
rfemur -25.2535 5.2536 12.0812
rtibia 25.3607
rfoot -3.3553 8.36989
rtoes -2.29958
lfemur 16.6457 -9.90973 -31.8238
ltibia 8.52915
lfoot -8.39198 -9.00028
ltoes -9.33742
